<?xml version="1.0" encoding="UTF-8"?>
<svg xmlns="http://www.w3.org/2000/svg" style="display: none;">
    <!-- Existing icons -->
    <symbol id="logo" viewBox="0 0 24 24" fill="none" stroke="currentColor" stroke-width="2">
        <rect x="3" y="3" width="18" height="18" rx="2" ry="2"/>
        <line x1="3" y1="9" x2="21" y2="9"/>
        <line x1="9" y1="21" x2="9" y2="9"/>
    </symbol>
    
    <symbol id="github" viewBox="0 0 24 24" fill="none" stroke="currentColor" stroke-width="2">
        <path d="M9 19c-5 1.5-5-2.5-7-3m14 6v-3.87a3.37 3.37 0 0 0-.94-2.61c3.14-.35 6.44-1.54 6.44-7A5.44 5.44 0 0 0 20 4.77 5.07 5.07 0 0 0 19.91 1S18.73.65 16 2.48a13.38 13.38 0 0 0-7 0C6.27.65 5.09 1 5.09 1A5.07 5.07 0 0 0 5 4.77a5.44 5.44 0 0 0-1.5 3.78c0 5.42 3.3 6.61 6.44 7A3.37 3.37 0 0 0 9 18.13V22"/>
    </symbol>

    <symbol id="privacy" viewBox="0 0 24 24" fill="none" stroke="currentColor" stroke-width="2">
        <rect x="3" y="11" width="18" height="11" rx="2" ry="2"/>
        <path d="M7 11V7a5 5 0 0 1 10 0v4"/>
    </symbol>

    <symbol id="chrome" viewBox="0 0 24 24" fill="none" stroke="currentColor" stroke-width="2">
        <circle cx="12" cy="12" r="10"/>
        <circle cx="12" cy="12" r="4"/>
        <line x1="21.17" y1="8" x2="12" y2="8"/>
        <line x1="3.95" y1="6.06" x2="8.54" y2="14"/>
        <line x1="10.88" y1="21.94" x2="15.46" y2="14"/>
    </symbol>

    <symbol id="vscode" viewBox="0 0 24 24" fill="none" stroke="currentColor" stroke-width="2">
        <path d="M16 3v18l-9-6 9-6"/>
        <path d="M16 3l-9 6v6"/>
    </symbol>

    <symbol id="firefox" viewBox="0 0 24 24" fill="none" stroke="currentColor" stroke-width="2">
        <circle cx="12" cy="12" r="10"/>
        <path d="M16 8a4 4 0 0 0-8 0"/>
        <path d="M12 16a4 4 0 0 0 4-4"/>
    </symbol>

    <symbol id="demo" viewBox="0 0 24 24" fill="none" stroke="currentColor" stroke-width="2">
        <rect x="2" y="3" width="20" height="14" rx="2" ry="2"/>
        <line x1="8" y1="21" x2="16" y2="21"/>
        <line x1="12" y1="17" x2="12" y2="21"/>
    </symbol>

    <symbol id="cart" viewBox="0 0 24 24" fill="none" stroke="currentColor" stroke-width="2">
        <circle cx="9" cy="21" r="1"/>
        <circle cx="20" cy="21" r="1"/>
        <path d="M1 1h4l2.68 13.39a2 2 0 0 0 2 1.61h9.72a2 2 0 0 0 2-1.61L23 6H6"/>
    </symbol>

    <!-- New web icon -->
    <symbol id="web" viewBox="0 0 24 24" fill="none" stroke="currentColor" stroke-width="2">
        <circle cx="12" cy="12" r="10"/>
        <line x1="2" y1="12" x2="22" y2="12"/>
        <path d="M12 2a15.3 15.3 0 0 1 4 10 15.3 15.3 0 0 1-4 10 15.3 15.3 0 0 1-4-10 15.3 15.3 0 0 1 4-10z"/>
    </symbol>
</svg>
